<mxfile host="65bd71144e" modified="2020-12-24T14:39:01.097Z" agent="5.0 (Windows NT 10.0; Win64; x64) AppleWebKit/537.36 (KHTML, like Gecko) Code/1.52.1 Chrome/83.0.4103.122 Electron/9.3.5 Safari/537.36" etag="VqzuWUqyRx2HqPWrAkOb" version="13.10.0" type="embed">
    <diagram id="phSO5ABGJ9jyhUcq3OO0" name="Page-1">
        <mxGraphModel dx="896" dy="567" grid="1" gridSize="10" guides="1" tooltips="1" connect="1" arrows="1" fold="1" page="1" pageScale="1" pageWidth="827" pageHeight="1169" math="0" shadow="0">
            <root>
                <mxCell id="0"/>
                <mxCell id="1" parent="0"/>
                <mxCell id="LDSrY6Pe4_FrRmaGrKkf-2" value="&lt;h1&gt;&lt;span&gt;Context&lt;/span&gt;&lt;/h1&gt;&lt;h1&gt;&lt;br&gt;&lt;/h1&gt;" style="text;html=1;strokeColor=none;fillColor=none;spacing=5;spacingTop=-20;whiteSpace=wrap;overflow=hidden;rounded=0;" parent="1" vertex="1">
                    <mxGeometry x="40" y="40" width="190" height="40" as="geometry"/>
                </mxCell>
                <mxCell id="LDSrY6Pe4_FrRmaGrKkf-3" style="edgeStyle=orthogonalEdgeStyle;rounded=0;orthogonalLoop=1;jettySize=auto;html=1;exitX=0.5;exitY=1;exitDx=0;exitDy=0;" parent="1" source="LDSrY6Pe4_FrRmaGrKkf-2" target="LDSrY6Pe4_FrRmaGrKkf-2" edge="1">
                    <mxGeometry relative="1" as="geometry"/>
                </mxCell>
                <mxCell id="LDSrY6Pe4_FrRmaGrKkf-9" value="" style="edgeStyle=orthogonalEdgeStyle;rounded=0;orthogonalLoop=1;jettySize=auto;html=1;startArrow=none;startFill=0;" parent="1" source="LDSrY6Pe4_FrRmaGrKkf-4" target="LDSrY6Pe4_FrRmaGrKkf-8" edge="1">
                    <mxGeometry relative="1" as="geometry"/>
                </mxCell>
                <mxCell id="LDSrY6Pe4_FrRmaGrKkf-4" value="&lt;br&gt;&lt;br&gt;&lt;br&gt;&lt;font color=&quot;#33001a&quot;&gt;User&lt;/font&gt;" style="shape=actor;whiteSpace=wrap;html=1;fillColor=#d5e8d4;strokeColor=#82b366;" parent="1" vertex="1">
                    <mxGeometry x="40" y="100" width="80" height="100" as="geometry"/>
                </mxCell>
                <mxCell id="LDSrY6Pe4_FrRmaGrKkf-11" value="" style="edgeStyle=orthogonalEdgeStyle;rounded=0;orthogonalLoop=1;jettySize=auto;html=1;startArrow=none;startFill=0;" parent="1" source="LDSrY6Pe4_FrRmaGrKkf-8" target="LDSrY6Pe4_FrRmaGrKkf-10" edge="1">
                    <mxGeometry relative="1" as="geometry"/>
                </mxCell>
                <mxCell id="LDSrY6Pe4_FrRmaGrKkf-8" value="To Do Application" style="whiteSpace=wrap;html=1;strokeColor=#6c8ebf;fillColor=#dae8fc;fontColor=#000000;" parent="1" vertex="1">
                    <mxGeometry x="330" y="120" width="120" height="60" as="geometry"/>
                </mxCell>
                <mxCell id="LDSrY6Pe4_FrRmaGrKkf-10" value="Trello Api" style="whiteSpace=wrap;html=1;strokeColor=#d6b656;fillColor=#fff2cc;fontColor=#000000;" parent="1" vertex="1">
                    <mxGeometry x="660" y="120" width="120" height="60" as="geometry"/>
                </mxCell>
                <mxCell id="LDSrY6Pe4_FrRmaGrKkf-12" value="Users add, edit and delete todo items using" style="text;html=1;strokeColor=none;fillColor=none;align=center;verticalAlign=middle;whiteSpace=wrap;rounded=0;" parent="1" vertex="1">
                    <mxGeometry x="160" y="120" width="130" height="20" as="geometry"/>
                </mxCell>
                <mxCell id="LDSrY6Pe4_FrRmaGrKkf-15" value="Items are stored and retrieved using" style="text;html=1;strokeColor=none;fillColor=none;align=center;verticalAlign=middle;whiteSpace=wrap;rounded=0;" parent="1" vertex="1">
                    <mxGeometry x="490" y="120" width="140" height="20" as="geometry"/>
                </mxCell>
                <mxCell id="LDSrY6Pe4_FrRmaGrKkf-16" value="&lt;h1&gt;Container&lt;/h1&gt;" style="text;html=1;strokeColor=none;fillColor=none;spacing=5;spacingTop=-20;whiteSpace=wrap;overflow=hidden;rounded=0;" parent="1" vertex="1">
                    <mxGeometry x="40" y="240" width="190" height="40" as="geometry"/>
                </mxCell>
                <mxCell id="LDSrY6Pe4_FrRmaGrKkf-21" value="" style="edgeStyle=orthogonalEdgeStyle;rounded=0;orthogonalLoop=1;jettySize=auto;html=1;startArrow=none;startFill=0;fontColor=#33001A;" parent="1" source="LDSrY6Pe4_FrRmaGrKkf-17" target="LDSrY6Pe4_FrRmaGrKkf-24" edge="1">
                    <mxGeometry relative="1" as="geometry"/>
                </mxCell>
                <mxCell id="LDSrY6Pe4_FrRmaGrKkf-17" value="&lt;br&gt;&lt;br&gt;&lt;br&gt;&lt;font color=&quot;#33001a&quot;&gt;User&lt;/font&gt;" style="shape=actor;whiteSpace=wrap;html=1;fillColor=#d5e8d4;strokeColor=#82b366;" parent="1" vertex="1">
                    <mxGeometry x="40" y="300" width="80" height="100" as="geometry"/>
                </mxCell>
                <mxCell id="LDSrY6Pe4_FrRmaGrKkf-19" value="" style="rounded=0;whiteSpace=wrap;html=1;fontColor=#33001A;fillColor=none;dashed=1;strokeColor=#7EA6E0;" parent="1" vertex="1">
                    <mxGeometry x="180" y="300" width="420" height="100" as="geometry"/>
                </mxCell>
                <mxCell id="LDSrY6Pe4_FrRmaGrKkf-20" value="Trello Api" style="whiteSpace=wrap;html=1;strokeColor=#d6b656;fillColor=#fff2cc;fontColor=#000000;" parent="1" vertex="1">
                    <mxGeometry x="660" y="320" width="120" height="60" as="geometry"/>
                </mxCell>
                <mxCell id="LDSrY6Pe4_FrRmaGrKkf-29" value="" style="edgeStyle=orthogonalEdgeStyle;rounded=0;orthogonalLoop=1;jettySize=auto;html=1;startArrow=none;startFill=0;fontColor=#33001A;" parent="1" source="LDSrY6Pe4_FrRmaGrKkf-24" target="LDSrY6Pe4_FrRmaGrKkf-26" edge="1">
                    <mxGeometry relative="1" as="geometry"/>
                </mxCell>
                <mxCell id="LDSrY6Pe4_FrRmaGrKkf-24" value="Gunicorn" style="rounded=0;whiteSpace=wrap;html=1;strokeColor=#6c8ebf;fillColor=#dae8fc;fontColor=#000000;" parent="1" vertex="1">
                    <mxGeometry x="200" y="320" width="110" height="60" as="geometry"/>
                </mxCell>
                <mxCell id="LDSrY6Pe4_FrRmaGrKkf-27" value="" style="edgeStyle=orthogonalEdgeStyle;rounded=0;orthogonalLoop=1;jettySize=auto;html=1;startArrow=none;startFill=0;fontColor=#33001A;" parent="1" source="LDSrY6Pe4_FrRmaGrKkf-25" target="LDSrY6Pe4_FrRmaGrKkf-20" edge="1">
                    <mxGeometry relative="1" as="geometry"/>
                </mxCell>
                <mxCell id="LDSrY6Pe4_FrRmaGrKkf-25" value="Application Code" style="rounded=0;whiteSpace=wrap;html=1;strokeColor=#9673a6;fillColor=#e1d5e7;fontColor=#000000;" parent="1" vertex="1">
                    <mxGeometry x="470" y="320" width="110" height="60" as="geometry"/>
                </mxCell>
                <mxCell id="LDSrY6Pe4_FrRmaGrKkf-30" value="" style="edgeStyle=orthogonalEdgeStyle;rounded=0;orthogonalLoop=1;jettySize=auto;html=1;startArrow=none;startFill=0;fontColor=#33001A;" parent="1" source="LDSrY6Pe4_FrRmaGrKkf-26" target="LDSrY6Pe4_FrRmaGrKkf-25" edge="1">
                    <mxGeometry relative="1" as="geometry"/>
                </mxCell>
                <mxCell id="LDSrY6Pe4_FrRmaGrKkf-26" value="Flask" style="rounded=0;whiteSpace=wrap;html=1;strokeColor=#6c8ebf;fillColor=#dae8fc;fontColor=#000000;" parent="1" vertex="1">
                    <mxGeometry x="335" y="320" width="110" height="60" as="geometry"/>
                </mxCell>
                <mxCell id="LDSrY6Pe4_FrRmaGrKkf-28" value="To Do Application" style="text;html=1;strokeColor=none;fillColor=none;align=center;verticalAlign=middle;whiteSpace=wrap;rounded=0;" parent="1" vertex="1">
                    <mxGeometry x="180" y="280" width="100" height="20" as="geometry"/>
                </mxCell>
                <mxCell id="LDSrY6Pe4_FrRmaGrKkf-31" value="Http requests" style="text;html=1;strokeColor=none;fillColor=none;align=center;verticalAlign=middle;whiteSpace=wrap;rounded=0;" parent="1" vertex="1">
                    <mxGeometry x="120" y="320" width="60" height="20" as="geometry"/>
                </mxCell>
                <mxCell id="LDSrY6Pe4_FrRmaGrKkf-32" value="API Calls" style="text;html=1;strokeColor=none;fillColor=none;align=center;verticalAlign=middle;whiteSpace=wrap;rounded=0;" parent="1" vertex="1">
                    <mxGeometry x="600" y="320" width="50" height="20" as="geometry"/>
                </mxCell>
                <mxCell id="LDSrY6Pe4_FrRmaGrKkf-33" value="&lt;h1&gt;Component&lt;/h1&gt;" style="text;html=1;strokeColor=none;fillColor=none;spacing=5;spacingTop=-20;whiteSpace=wrap;overflow=hidden;rounded=0;" parent="1" vertex="1">
                    <mxGeometry x="40" y="440" width="190" height="40" as="geometry"/>
                </mxCell>
                <mxCell id="LDSrY6Pe4_FrRmaGrKkf-42" style="edgeStyle=orthogonalEdgeStyle;rounded=0;orthogonalLoop=1;jettySize=auto;html=1;startArrow=none;startFill=0;fontColor=#33001A;" parent="1" source="LDSrY6Pe4_FrRmaGrKkf-35" target="LDSrY6Pe4_FrRmaGrKkf-39" edge="1">
                    <mxGeometry relative="1" as="geometry"/>
                </mxCell>
                <mxCell id="LDSrY6Pe4_FrRmaGrKkf-35" value="Flask" style="rounded=0;whiteSpace=wrap;html=1;strokeColor=#6c8ebf;fillColor=#dae8fc;fontColor=#000000;" parent="1" vertex="1">
                    <mxGeometry x="40" y="520" width="110" height="60" as="geometry"/>
                </mxCell>
                <mxCell id="LDSrY6Pe4_FrRmaGrKkf-36" value="Trello Api" style="whiteSpace=wrap;html=1;strokeColor=#d6b656;fillColor=#fff2cc;fontColor=#000000;" parent="1" vertex="1">
                    <mxGeometry x="660" y="520" width="120" height="60" as="geometry"/>
                </mxCell>
                <mxCell id="LDSrY6Pe4_FrRmaGrKkf-37" value="" style="rounded=0;whiteSpace=wrap;html=1;fontColor=#33001A;fillColor=none;dashed=1;strokeColor=#A680B8;" parent="1" vertex="1">
                    <mxGeometry x="190" y="500" width="420" height="100" as="geometry"/>
                </mxCell>
                <mxCell id="LDSrY6Pe4_FrRmaGrKkf-38" value="Application Code" style="text;html=1;strokeColor=none;fillColor=none;align=center;verticalAlign=middle;whiteSpace=wrap;rounded=0;" parent="1" vertex="1">
                    <mxGeometry x="190" y="480" width="100" height="20" as="geometry"/>
                </mxCell>
                <mxCell id="LDSrY6Pe4_FrRmaGrKkf-43" value="" style="edgeStyle=orthogonalEdgeStyle;rounded=0;orthogonalLoop=1;jettySize=auto;html=1;startArrow=none;startFill=0;fontColor=#33001A;" parent="1" source="LDSrY6Pe4_FrRmaGrKkf-39" target="LDSrY6Pe4_FrRmaGrKkf-41" edge="1">
                    <mxGeometry relative="1" as="geometry"/>
                </mxCell>
                <mxCell id="LDSrY6Pe4_FrRmaGrKkf-39" value="HTML Templates" style="rounded=0;whiteSpace=wrap;html=1;strokeColor=#9673a6;fillColor=#e1d5e7;fontColor=#000000;" parent="1" vertex="1">
                    <mxGeometry x="210" y="520" width="110" height="60" as="geometry"/>
                </mxCell>
                <mxCell id="LDSrY6Pe4_FrRmaGrKkf-45" style="edgeStyle=orthogonalEdgeStyle;rounded=0;orthogonalLoop=1;jettySize=auto;html=1;startArrow=none;startFill=0;fontColor=#33001A;" parent="1" source="LDSrY6Pe4_FrRmaGrKkf-40" target="LDSrY6Pe4_FrRmaGrKkf-36" edge="1">
                    <mxGeometry relative="1" as="geometry"/>
                </mxCell>
                <mxCell id="LDSrY6Pe4_FrRmaGrKkf-40" value="Trello Wrapper" style="rounded=0;whiteSpace=wrap;html=1;strokeColor=#9673a6;fillColor=#e1d5e7;fontColor=#000000;" parent="1" vertex="1">
                    <mxGeometry x="480" y="520" width="110" height="60" as="geometry"/>
                </mxCell>
                <mxCell id="LDSrY6Pe4_FrRmaGrKkf-44" value="" style="edgeStyle=orthogonalEdgeStyle;rounded=0;orthogonalLoop=1;jettySize=auto;html=1;startArrow=none;startFill=0;fontColor=#33001A;" parent="1" source="LDSrY6Pe4_FrRmaGrKkf-41" target="LDSrY6Pe4_FrRmaGrKkf-40" edge="1">
                    <mxGeometry relative="1" as="geometry"/>
                </mxCell>
                <mxCell id="LDSrY6Pe4_FrRmaGrKkf-41" value="Route Controller" style="rounded=0;whiteSpace=wrap;html=1;strokeColor=#9673a6;fillColor=#e1d5e7;fontColor=#000000;" parent="1" vertex="1">
                    <mxGeometry x="345" y="520" width="110" height="60" as="geometry"/>
                </mxCell>
            </root>
        </mxGraphModel>
    </diagram>
</mxfile>